{
  "asset": {
    "version": "2.0"
  },
  "scene": 0,
  "scenes": [
    {
      "nodes": [
        0
      ]
    }
  ],
  "nodes": [
    {
      "mesh": 0
    }
  ],
  "meshes": [
    {
      "name": "floor",
      "primitives": [
        {
          "attributes": {
            "POSITION": 0,
            "COLOR_0": 2
          },
          "indices": 1,
          "mode": 4
        }
      ]
    }
  ],
  "accessors": [
    {
      "bufferView": 0,
      "componentType": 5126,
      "count": 4,
      "type": "VEC3",
      "min": [
        -256,
        0,
        -256
      ],
      "max": [
        256,
        0,
        256
      ]
    },
    {
      "bufferView": 1,
      "componentType": 5123,
      "count": 6,
      "type": "SCALAR"
    },
    {
      "bufferView": 2,
      "componentType": 5126,
      "count": 4,
      "type": "VEC3"
    }
  ],
  "bufferViews": [
    {
      "buffer": 0,
      "byteOffset": 0,
      "byteLength": 48
    },
    {
      "buffer": 0,
      "byteOffset": 48,
      "byteLength": 12
    },
    {
      "buffer": 0,
      "byteOffset": 60,
      "byteLength": 48
    }
  ],
  "buffers": [
    {
      "byteLength": 108,
      "uri": "data:application/octet-stream;base64,"
    }
  ]
}
